<?xml version="1.0" encoding="UTF-8" standalone="no"?>
<!-- Creative Commons BY-NC-SA -->

<!-- Attribution: https://github.com/curlew-knotwork -->

<svg
   height="777.19mm"
   viewBox="0 0 969.94967 777.18999"
   width="969.94971mm"
   version="1.1"
   id="svg429"
   sodipodi:docname="minicajon-plain-350mmx250mmx100mm-outer-final.svg"
   inkscape:version="1.2.2 (b0a8486541, 2022-12-01)"
   xmlns:inkscape="http://www.inkscape.org/namespaces/inkscape"
   xmlns:sodipodi="http://sodipodi.sourceforge.net/DTD/sodipodi-0.dtd"
   xmlns="http://www.w3.org/2000/svg"
   xmlns:svg="http://www.w3.org/2000/svg"
   xmlns:rdf="http://www.w3.org/1999/02/22-rdf-syntax-ns#"
   xmlns:cc="http://creativecommons.org/ns#"
   xmlns:dc="http://purl.org/dc/elements/1.1/">
  <defs
     id="defs433">
    <rect
       x="1456.9879"
       y="-567.13177"
       width="97.628128"
       height="28.422285"
       id="rect1000" />
  </defs>
  <sodipodi:namedview
     id="namedview431"
     pagecolor="#ffffff"
     bordercolor="#000000"
     borderopacity="0.25"
     inkscape:showpageshadow="2"
     inkscape:pageopacity="0.0"
     inkscape:pagecheckerboard="0"
     inkscape:deskcolor="#d1d1d1"
     inkscape:document-units="mm"
     showgrid="false"
     showguides="false"
     inkscape:zoom="0.31953457"
     inkscape:cx="846.54377"
     inkscape:cy="2268.9251"
     inkscape:window-width="1452"
     inkscape:window-height="991"
     inkscape:window-x="26"
     inkscape:window-y="23"
     inkscape:window-maximized="0"
     inkscape:current-layer="svg429" />
  <!--
ABox - A simple Box


This box is kept simple on purpose. If you need more features have a look at the UniversalBox.


Created with Boxes.py (https://boxes.hackerspace-bamberg.de/)
Creation date: 2025-12-18 12:14:14
Command line (remove spaces between dashes): boxes ABox - -x=350.0 - -y=250.0 - -bottom_edge=F - -thickness=6.0 - -reference=0 - -spacing=0.5
Url: https://boxes.hackerspace-bamberg.de/ABox?FingerJoint_style=rectangular&FingerJoint_surroundingspaces=2.0&FingerJoint_bottom_lip=0.0&FingerJoint_edge_width=1.0&FingerJoint_extra_length=0.0&FingerJoint_finger=2.0&FingerJoint_play=0.0&FingerJoint_space=2.0&FingerJoint_width=1.0&Lid_handle=none&Lid_style=none&Lid_handle_height=8.0&Lid_height=4.0&Lid_play=0.1&x=350.0&y=250.0&h=100.0&outside=0&outside=1&bottom_edge=F&thickness=6.0&format=svg&tabs=0.0&qr_code=0&debug=0&labels=0&labels=1&reference=0&inner_corners=loop&burn=0.1&spacing=0.5&language=en&render=4
Url short: https://boxes.hackerspace-bamberg.de/ABox?x=350.0&y=250.0&bottom_edge=F&thickness=6.0&reference=0&spacing=0.5
SettingsUrl: https://boxes.hackerspace-bamberg.de/ABox?FingerJoint_style=rectangular&FingerJoint_surroundingspaces=2.0&FingerJoint_bottom_lip=0.0&FingerJoint_edge_width=1.0&FingerJoint_extra_length=0.0&FingerJoint_finger=2.0&FingerJoint_play=0.0&FingerJoint_space=2.0&FingerJoint_width=1.0&Lid_handle=none&Lid_style=none&Lid_handle_height=8.0&Lid_height=4.0&Lid_play=0.1&x=350.0&y=250.0&h=100.0&outside=0&outside=1&bottom_edge=F&thickness=6.0&format=svg&tabs=0.0&qr_code=0&debug=0&labels=0&labels=1&reference=0&inner_corners=loop&burn=0.1&spacing=0.5&language=en&render=4
SettingsUrl short: https://boxes.hackerspace-bamberg.de/ABox?x=350.0&y=250.0&bottom_edge=F&thickness=6.0&reference=0&spacing=0.5
-->
  <title
     id="title410">ABox</title>
  <metadata
     id="metadata412">
    <rdf:RDF>
      <cc:Work>
        <dc:title>ABox</dc:title>
        <dc:date>2025-12-18 12:14:14</dc:date>
        <dc:source>https://boxes.hackerspace-bamberg.de/ABox?FingerJoint_style=rectangular&amp;FingerJoint_surroundingspaces=2.0&amp;FingerJoint_bottom_lip=0.0&amp;FingerJoint_edge_width=1.0&amp;FingerJoint_extra_length=0.0&amp;FingerJoint_finger=2.0&amp;FingerJoint_play=0.0&amp;FingerJoint_space=2.0&amp;FingerJoint_width=1.0&amp;Lid_handle=none&amp;Lid_style=none&amp;Lid_handle_height=8.0&amp;Lid_height=4.0&amp;Lid_play=0.1&amp;x=350.0&amp;y=250.0&amp;h=100.0&amp;outside=0&amp;outside=1&amp;bottom_edge=F&amp;thickness=6.0&amp;format=svg&amp;tabs=0.0&amp;qr_code=0&amp;debug=0&amp;labels=0&amp;labels=1&amp;reference=0&amp;inner_corners=loop&amp;burn=0.1&amp;spacing=0.5&amp;language=en&amp;render=4</dc:source>
        <dc:source>https://boxes.hackerspace-bamberg.de/ABox?x=350.0&amp;y=250.0&amp;bottom_edge=F&amp;thickness=6.0&amp;reference=0&amp;spacing=0.5</dc:source>
        <dc:description>A simple Box

This box is kept simple on purpose. If you need more features have a look at the UniversalBox.

Created with Boxes.py (https://boxes.hackerspace-bamberg.de/)
Command line: boxes ABox --FingerJoint_style=rectangular --FingerJoint_surroundingspaces=2.0 --FingerJoint_bottom_lip=0.0 --FingerJoint_edge_width=1.0 --FingerJoint_extra_length=0.0 --FingerJoint_finger=2.0 --FingerJoint_play=0.0 --FingerJoint_space=2.0 --FingerJoint_width=1.0 --Lid_handle=none --Lid_style=none --Lid_handle_height=8.0 --Lid_height=4.0 --Lid_play=0.1 --x=350.0 --y=250.0 --h=100.0 --outside=0 --outside=1 --bottom_edge=F --thickness=6.0 --format=svg --tabs=0.0 --qr_code=0 --debug=0 --labels=0 --labels=1 --reference=0 --inner_corners=loop --burn=0.1 --spacing=0.5
Command line short: boxes ABox --x=350.0 --y=250.0 --bottom_edge=F --thickness=6.0 --reference=0 --spacing=0.5
Url: https://boxes.hackerspace-bamberg.de/ABox?FingerJoint_style=rectangular&amp;FingerJoint_surroundingspaces=2.0&amp;FingerJoint_bottom_lip=0.0&amp;FingerJoint_edge_width=1.0&amp;FingerJoint_extra_length=0.0&amp;FingerJoint_finger=2.0&amp;FingerJoint_play=0.0&amp;FingerJoint_space=2.0&amp;FingerJoint_width=1.0&amp;Lid_handle=none&amp;Lid_style=none&amp;Lid_handle_height=8.0&amp;Lid_height=4.0&amp;Lid_play=0.1&amp;x=350.0&amp;y=250.0&amp;h=100.0&amp;outside=0&amp;outside=1&amp;bottom_edge=F&amp;thickness=6.0&amp;format=svg&amp;tabs=0.0&amp;qr_code=0&amp;debug=0&amp;labels=0&amp;labels=1&amp;reference=0&amp;inner_corners=loop&amp;burn=0.1&amp;spacing=0.5&amp;language=en&amp;render=4
Url short: https://boxes.hackerspace-bamberg.de/ABox?x=350.0&amp;y=250.0&amp;bottom_edge=F&amp;thickness=6.0&amp;reference=0&amp;spacing=0.5
SettingsUrl: https://boxes.hackerspace-bamberg.de/ABox?FingerJoint_style=rectangular&amp;FingerJoint_surroundingspaces=2.0&amp;FingerJoint_bottom_lip=0.0&amp;FingerJoint_edge_width=1.0&amp;FingerJoint_extra_length=0.0&amp;FingerJoint_finger=2.0&amp;FingerJoint_play=0.0&amp;FingerJoint_space=2.0&amp;FingerJoint_width=1.0&amp;Lid_handle=none&amp;Lid_style=none&amp;Lid_handle_height=8.0&amp;Lid_height=4.0&amp;Lid_play=0.1&amp;x=350.0&amp;y=250.0&amp;h=100.0&amp;outside=0&amp;outside=1&amp;bottom_edge=F&amp;thickness=6.0&amp;format=svg&amp;tabs=0.0&amp;qr_code=0&amp;debug=0&amp;labels=0&amp;labels=1&amp;reference=0&amp;inner_corners=loop&amp;burn=0.1&amp;spacing=0.5&amp;language=en&amp;render=4
SettingsUrl short: https://boxes.hackerspace-bamberg.de/ABox?x=350.0&amp;y=250.0&amp;bottom_edge=F&amp;thickness=6.0&amp;reference=0&amp;spacing=0.5
</dc:description>
      </cc:Work>
    </rdf:RDF>
  </metadata>
  <g
     id="p-2"
     style="vector-effect:non-scaling-stroke;fill:none;stroke-width:0.264583;stroke-linecap:round;stroke-linejoin:round;stroke-dasharray:none;-inkscape-stroke:hairline"
     transform="translate(178.28869,255.57787)">
    <path
       d="M 16.1,254.2 H 35 c 0.1,0 0,-0.1 0,0 v 5.9 c 0,0.055 0.045,0.1 0.1,0.1 h 12 c 0.055,0 0.1,-0.045 0.1,-0.1 v -5.9 c 0,-0.1 -0.1,0 0,0 H 59 c 0.1,0 0,-0.1 0,0 v 5.9 c 0,0.055 0.045,0.1 0.1,0.1 h 12 c 0.055,0 0.1,-0.045 0.1,-0.1 v -5.9 c 0,-0.1 -0.1,0 0,0 H 83 c 0.1,0 0,-0.1 0,0 v 5.9 c 0,0.055 0.045,0.1 0.1,0.1 h 12 c 0.055,0 0.1,-0.045 0.1,-0.1 v -5.9 c 0,-0.1 -0.1,0 0,0 H 107 c 0.1,0 0,-0.1 0,0 v 5.9 c 0,0.055 0.045,0.1 0.1,0.1 h 12 c 0.055,0 0.1,-0.045 0.1,-0.1 v -5.9 c 0,-0.1 -0.1,0 0,0 H 131 c 0.1,0 0,-0.1 0,0 v 5.9 c 0,0.055 0.045,0.1 0.1,0.1 h 12 c 0.055,0 0.1,-0.045 0.1,-0.1 v -5.9 c 0,-0.1 -0.1,0 0,0 H 155 c 0.1,0 0,-0.1 0,0 v 5.9 c 0,0.055 0.045,0.1 0.1,0.1 h 12 c 0.055,0 0.1,-0.045 0.1,-0.1 v -5.9 c 0,-0.1 -0.1,0 0,0 H 179 c 0.1,0 0,-0.1 0,0 v 5.9 c 0,0.055 0.045,0.1 0.1,0.1 h 12 c 0.055,0 0.1,-0.045 0.1,-0.1 v -5.9 c 0,-0.1 -0.1,0 0,0 H 203 c 0.1,0 0,-0.1 0,0 v 5.9 c 0,0.055 0.045,0.1 0.1,0.1 h 12 c 0.055,0 0.1,-0.045 0.1,-0.1 v -5.9 c 0,-0.1 -0.1,0 0,0 H 227 c 0.1,0 0,-0.1 0,0 v 5.9 c 0,0.055 0.045,0.1 0.1,0.1 h 12 c 0.055,0 0.1,-0.045 0.1,-0.1 v -5.9 c 0,-0.1 -0.1,0 0,0 H 251 c 0.1,0 0,-0.1 0,0 v 5.9 c 0,0.055 0.045,0.1 0.1,0.1 h 12 c 0.055,0 0.1,-0.045 0.1,-0.1 v -5.9 c 0,-0.1 -0.1,0 0,0 H 275 c 0.1,0 0,-0.1 0,0 v 5.9 c 0,0.055 0.045,0.1 0.1,0.1 h 12 c 0.055,0 0.1,-0.045 0.1,-0.1 v -5.9 c 0,-0.1 -0.1,0 0,0 H 299 c 0.1,0 0,-0.1 0,0 v 5.9 c 0,0.055 0.045,0.1 0.1,0.1 h 12 c 0.055,0 0.1,-0.045 0.1,-0.1 v -5.9 c 0,-0.1 -0.1,0 0,0 H 323 c 0.1,0 0,-0.1 0,0 v 5.9 c 0,0.055 0.045,0.1 0.1,0.1 h 12 c 0.055,0 0.1,-0.045 0.1,-0.1 v -5.9 c 0,-0.1 -0.1,0 0,0 h 18.9 c 0.055,0 0.1,-0.045 0.1,-0.1 v -16.9 c 0,-0.1 -0.1,0 0,0 h 5.9 c 0.055,0 0.1,-0.045 0.1,-0.1 v -12 c 0,-0.055 -0.045,-0.1 -0.1,-0.1 h -5.9 c -0.1,0 0,0.1 0,0 v -11.8 c 0,-0.1 -0.1,0 0,0 h 5.9 c 0.055,0 0.1,-0.045 0.1,-0.1 v -12 c 0,-0.055 -0.045,-0.1 -0.1,-0.1 h -5.9 c -0.1,0 0,0.1 0,0 v -11.8 c 0,-0.1 -0.1,0 0,0 h 5.9 c 0.055,0 0.1,-0.045 0.1,-0.1 v -12 c 0,-0.055 -0.045,-0.1 -0.1,-0.1 h -5.9 c -0.1,0 0,0.1 0,0 v -11.8 c 0,-0.1 -0.1,0 0,0 h 5.9 c 0.055,0 0.1,-0.045 0.1,-0.1 v -12 c 0,-0.055 -0.045,-0.1 -0.1,-0.1 h -5.9 c -0.1,0 0,0.1 0,0 v -11.8 c 0,-0.1 -0.1,0 0,0 h 5.9 c 0.055,0 0.1,-0.045 0.1,-0.1 v -12 c 0,-0.055 -0.045,-0.1 -0.1,-0.1 h -5.9 c -0.1,0 0,0.1 0,0 v -11.8 c 0,-0.1 -0.1,0 0,0 h 5.9 c 0.055,0 0.1,-0.045 0.1,-0.1 v -12 c 0,-0.055 -0.045,-0.1 -0.1,-0.1 h -5.9 c -0.1,0 0,0.1 0,0 V 93.2 c 0,-0.1 -0.1,0 0,0 h 5.9 c 0.055,0 0.1,-0.045 0.1,-0.1 v -12 c 0,-0.055 -0.045,-0.1 -0.1,-0.1 h -5.9 c -0.1,0 0,0.1 0,0 V 69.2 c 0,-0.1 -0.1,0 0,0 h 5.9 c 0.055,0 0.1,-0.045 0.1,-0.1 v -12 c 0,-0.055 -0.045,-0.1 -0.1,-0.1 h -5.9 c -0.1,0 0,0.1 0,0 V 45.2 c 0,-0.1 -0.1,0 0,0 h 5.9 c 0.055,0 0.1,-0.045 0.1,-0.1 v -12 c 0,-0.055 -0.045,-0.1 -0.1,-0.1 h -5.9 c -0.1,0 0,0.1 0,0 V 16.1 c 0,-0.055 -0.045,-0.1 -0.1,-0.1 h -18.9 c -0.1,0 0,0.1 0,0 v -5.9 c 0,-0.055 -0.045,-0.1 -0.1,-0.1 h -12 c -0.055,0 -0.1,0.045 -0.1,0.1 V 16 c 0,0.1 0.1,0 0,0 h -11.8 c -0.1,0 0,0.1 0,0 v -5.9 c 0,-0.055 -0.045,-0.1 -0.1,-0.1 h -12 c -0.055,0 -0.1,0.045 -0.1,0.1 V 16 c 0,0.1 0.1,0 0,0 h -11.8 c -0.1,0 0,0.1 0,0 v -5.9 c 0,-0.055 -0.045,-0.1 -0.1,-0.1 h -12 c -0.055,0 -0.1,0.045 -0.1,0.1 V 16 c 0,0.1 0.1,0 0,0 h -11.8 c -0.1,0 0,0.1 0,0 v -5.9 c 0,-0.055 -0.045,-0.1 -0.1,-0.1 h -12 c -0.055,0 -0.1,0.045 -0.1,0.1 V 16 c 0,0.1 0.1,0 0,0 h -11.8 c -0.1,0 0,0.1 0,0 v -5.9 c 0,-0.055 -0.045,-0.1 -0.1,-0.1 h -12 c -0.055,0 -0.1,0.045 -0.1,0.1 V 16 c 0,0.1 0.1,0 0,0 h -11.8 c -0.1,0 0,0.1 0,0 v -5.9 c 0,-0.055 -0.045,-0.1 -0.1,-0.1 h -12 c -0.055,0 -0.1,0.045 -0.1,0.1 V 16 c 0,0.1 0.1,0 0,0 h -11.8 c -0.1,0 0,0.1 0,0 v -5.9 c 0,-0.055 -0.045,-0.1 -0.1,-0.1 h -12 c -0.055,0 -0.1,0.045 -0.1,0.1 V 16 c 0,0.1 0.1,0 0,0 h -11.8 c -0.1,0 0,0.1 0,0 v -5.9 c 0,-0.055 -0.045,-0.1 -0.1,-0.1 h -12 c -0.055,0 -0.1,0.045 -0.1,0.1 V 16 c 0,0.1 0.1,0 0,0 h -11.8 c -0.1,0 0,0.1 0,0 v -5.9 c 0,-0.055 -0.045,-0.1 -0.1,-0.1 h -12 c -0.055,0 -0.1,0.045 -0.1,0.1 V 16 c 0,0.1 0.1,0 0,0 h -11.8 c -0.1,0 0,0.1 0,0 v -5.9 c 0,-0.055 -0.045,-0.1 -0.1,-0.1 h -12 c -0.055,0 -0.1,0.045 -0.1,0.1 V 16 c 0,0.1 0.1,0 0,0 H 95.2 c -0.1,0 0,0.1 0,0 V 10.1 C 95.2,10.045 95.155,10 95.1,10 h -12 C 83.045,10 83,10.045 83,10.1 V 16 c 0,0.1 0.1,0 0,0 H 71.2 c -0.1,0 0,0.1 0,0 V 10.1 C 71.2,10.045 71.155,10 71.1,10 h -12 C 59.045,10 59,10.045 59,10.1 V 16 c 0,0.1 0.1,0 0,0 H 47.2 c -0.1,0 0,0.1 0,0 V 10.1 C 47.2,10.045 47.155,10 47.1,10 h -12 C 35.045,10 35,10.045 35,10.1 V 16 c 0,0.1 0.1,0 0,0 H 16.1 C 16.045,16 16,16.045 16,16.1 V 33 c 0,0.1 0.1,0 0,0 H 10.1 C 10.045,33 10,33.045 10,33.1 v 12 c 0,0.055 0.045,0.1 0.1,0.1 H 16 c 0.1,0 0,-0.1 0,0 V 57 c 0,0.1 0.1,0 0,0 H 10.1 C 10.045,57 10,57.045 10,57.1 v 12 c 0,0.055 0.045,0.1 0.1,0.1 H 16 c 0.1,0 0,-0.1 0,0 V 81 c 0,0.1 0.1,0 0,0 H 10.1 C 10.045,81 10,81.045 10,81.1 v 12 c 0,0.055 0.045,0.1 0.1,0.1 H 16 c 0.1,0 0,-0.1 0,0 V 105 c 0,0.1 0.1,0 0,0 h -5.9 c -0.055,0 -0.1,0.045 -0.1,0.1 v 12 c 0,0.055 0.045,0.1 0.1,0.1 H 16 c 0.1,0 0,-0.1 0,0 V 129 c 0,0.1 0.1,0 0,0 h -5.9 c -0.055,0 -0.1,0.045 -0.1,0.1 v 12 c 0,0.055 0.045,0.1 0.1,0.1 H 16 c 0.1,0 0,-0.1 0,0 V 153 c 0,0.1 0.1,0 0,0 h -5.9 c -0.055,0 -0.1,0.045 -0.1,0.1 v 12 c 0,0.055 0.045,0.1 0.1,0.1 H 16 c 0.1,0 0,-0.1 0,0 V 177 c 0,0.1 0.1,0 0,0 h -5.9 c -0.055,0 -0.1,0.045 -0.1,0.1 v 12 c 0,0.055 0.045,0.1 0.1,0.1 H 16 c 0.1,0 0,-0.1 0,0 V 201 c 0,0.1 0.1,0 0,0 h -5.9 c -0.055,0 -0.1,0.045 -0.1,0.1 v 12 c 0,0.055 0.045,0.1 0.1,0.1 H 16 c 0.1,0 0,-0.1 0,0 V 225 c 0,0.1 0.1,0 0,0 h -5.9 c -0.055,0 -0.1,0.045 -0.1,0.1 v 12 c 0,0.055 0.045,0.1 0.1,0.1 H 16 c 0.1,0 0,-0.1 0,0 v 16.9 c 0,0.055 0.045,0.1 0.1,0.1 z"
       stroke="#000000"
       stroke-width="0.20"
       id="path420"
       style="vector-effect:non-scaling-stroke;stroke-width:0.264583;stroke-dasharray:none;-inkscape-stroke:hairline" />
  </g>
  <g
     id="p-3"
     style="vector-effect:non-scaling-stroke;fill:none;stroke-width:0.264583;stroke-linecap:round;stroke-linejoin:round;stroke-dasharray:none;-inkscape-stroke:hairline"
     transform="translate(178.28869,260.34037)">
    <path
       d="m 369.3,466.6 h 17 c 0.055,0 0.1,-0.045 0.1,-0.1 v -5.9 c 0,-0.1 -0.1,0 0,0 h 11.8 c 0.1,0 0,-0.1 0,0 v 5.9 c 0,0.055 0.045,0.1 0.1,0.1 h 12 c 0.055,0 0.1,-0.045 0.1,-0.1 v -5.9 c 0,-0.1 -0.1,0 0,0 h 11.8 c 0.1,0 0,-0.1 0,0 v 5.9 c 0,0.055 0.045,0.1 0.1,0.1 h 12 c 0.055,0 0.1,-0.045 0.1,-0.1 v -5.9 c 0,-0.1 -0.1,0 0,0 h 11.8 c 0.1,0 0,-0.1 0,0 v 5.9 c 0,0.055 0.045,0.1 0.1,0.1 h 12 c 0.055,0 0.1,-0.045 0.1,-0.1 v -5.9 c 0,-0.1 -0.1,0 0,0 h 11.8 c 0.1,0 0,-0.1 0,0 v 5.9 c 0,0.055 0.045,0.1 0.1,0.1 h 12 c 0.055,0 0.1,-0.045 0.1,-0.1 v -5.9 c 0,-0.1 -0.1,0 0,0 h 11.8 c 0.1,0 0,-0.1 0,0 v 5.9 c 0,0.055 0.045,0.1 0.1,0.1 h 12 c 0.055,0 0.1,-0.045 0.1,-0.1 v -5.9 c 0,-0.1 -0.1,0 0,0 h 11.8 c 0.1,0 0,-0.1 0,0 v 5.9 c 0,0.055 0.045,0.1 0.1,0.1 h 12 c 0.055,0 0.1,-0.045 0.1,-0.1 v -5.9 c 0,-0.1 -0.1,0 0,0 h 11.8 c 0.1,0 0,-0.1 0,0 v 5.9 c 0,0.055 0.045,0.1 0.1,0.1 h 12 c 0.055,0 0.1,-0.045 0.1,-0.1 v -5.9 c 0,-0.1 -0.1,0 0,0 h 11.8 c 0.1,0 0,-0.1 0,0 v 5.9 c 0,0.055 0.045,0.1 0.1,0.1 h 12 c 0.055,0 0.1,-0.045 0.1,-0.1 v -5.9 c 0,-0.1 -0.1,0 0,0 h 11.8 c 0.1,0 0,-0.1 0,0 v 5.9 c 0,0.055 0.045,0.1 0.1,0.1 h 17 c 0.055,0 0.1,-0.045 0.1,-0.1 v -19.9 c 0,-0.1 -0.1,0 0,0 h 5.9 c 0.055,0 0.1,-0.045 0.1,-0.1 v -12 c 0,-0.055 -0.045,-0.1 -0.1,-0.1 h -5.9 c -0.1,0 0,0.1 0,0 v -11.8 c 0,-0.1 -0.1,0 0,0 h 5.9 c 0.055,0 0.1,-0.045 0.1,-0.1 v -12 c 0,-0.055 -0.045,-0.1 -0.1,-0.1 h -5.9 c -0.1,0 0,0.1 0,0 v -11.8 c 0,-0.1 -0.1,0 0,0 h 5.9 c 0.055,0 0.1,-0.045 0.1,-0.1 v -12 c 0,-0.055 -0.045,-0.1 -0.1,-0.1 h -5.9 c -0.1,0 0,0.1 0,0 v -19.9 c 0,-0.055 -0.045,-0.1 -0.1,-0.1 h -238 c -0.055,0 -0.1,0.045 -0.1,0.1 v 19.9 c 0,0.1 0.1,0 0,0 h -5.9 c -0.055,0 -0.1,0.045 -0.1,0.1 v 12 c 0,0.055 0.045,0.1 0.1,0.1 h 5.9 c 0.1,0 0,-0.1 0,0 v 11.8 c 0,0.1 0.1,0 0,0 h -5.9 c -0.055,0 -0.1,0.045 -0.1,0.1 v 12 c 0,0.055 0.045,0.1 0.1,0.1 h 5.9 c 0.1,0 0,-0.1 0,0 v 11.8 c 0,0.1 0.1,0 0,0 h -5.9 c -0.055,0 -0.1,0.045 -0.1,0.1 v 12 c 0,0.055 0.045,0.1 0.1,0.1 h 5.9 c 0.1,0 0,-0.1 0,0 v 19.9 c 0,0.055 0.045,0.1 0.1,0.1 z"
       stroke="#000000"
       stroke-width="0.20"
       id="path423"
       style="vector-effect:non-scaling-stroke;stroke-width:0.264583;stroke-dasharray:none;-inkscape-stroke:hairline" />
  </g>
  <g
     id="p-4"
     style="vector-effect:non-scaling-stroke;fill:none;stroke-width:0.264583;stroke-linecap:round;stroke-linejoin:round;stroke-dasharray:none;-inkscape-stroke:hairline"
     transform="translate(178.28869,260.34037)">
    <path
       d="m 369.3,363.4 h 17 c 0.055,0 0.1,-0.045 0.1,-0.1 v -5.9 c 0,-0.1 -0.1,0 0,0 h 11.8 c 0.1,0 0,-0.1 0,0 v 5.9 c 0,0.055 0.045,0.1 0.1,0.1 h 12 c 0.055,0 0.1,-0.045 0.1,-0.1 v -5.9 c 0,-0.1 -0.1,0 0,0 h 11.8 c 0.1,0 0,-0.1 0,0 v 5.9 c 0,0.055 0.045,0.1 0.1,0.1 h 12 c 0.055,0 0.1,-0.045 0.1,-0.1 v -5.9 c 0,-0.1 -0.1,0 0,0 h 11.8 c 0.1,0 0,-0.1 0,0 v 5.9 c 0,0.055 0.045,0.1 0.1,0.1 h 12 c 0.055,0 0.1,-0.045 0.1,-0.1 v -5.9 c 0,-0.1 -0.1,0 0,0 h 11.8 c 0.1,0 0,-0.1 0,0 v 5.9 c 0,0.055 0.045,0.1 0.1,0.1 h 12 c 0.055,0 0.1,-0.045 0.1,-0.1 v -5.9 c 0,-0.1 -0.1,0 0,0 h 11.8 c 0.1,0 0,-0.1 0,0 v 5.9 c 0,0.055 0.045,0.1 0.1,0.1 h 12 c 0.055,0 0.1,-0.045 0.1,-0.1 v -5.9 c 0,-0.1 -0.1,0 0,0 h 11.8 c 0.1,0 0,-0.1 0,0 v 5.9 c 0,0.055 0.045,0.1 0.1,0.1 h 12 c 0.055,0 0.1,-0.045 0.1,-0.1 v -5.9 c 0,-0.1 -0.1,0 0,0 h 11.8 c 0.1,0 0,-0.1 0,0 v 5.9 c 0,0.055 0.045,0.1 0.1,0.1 h 12 c 0.055,0 0.1,-0.045 0.1,-0.1 v -5.9 c 0,-0.1 -0.1,0 0,0 h 11.8 c 0.1,0 0,-0.1 0,0 v 5.9 c 0,0.055 0.045,0.1 0.1,0.1 h 12 c 0.055,0 0.1,-0.045 0.1,-0.1 v -5.9 c 0,-0.1 -0.1,0 0,0 h 11.8 c 0.1,0 0,-0.1 0,0 v 5.9 c 0,0.055 0.045,0.1 0.1,0.1 h 17 c 0.055,0 0.1,-0.045 0.1,-0.1 v -19.9 c 0,-0.1 -0.1,0 0,0 h 5.9 c 0.055,0 0.1,-0.045 0.1,-0.1 v -12 c 0,-0.055 -0.045,-0.1 -0.1,-0.1 h -5.9 c -0.1,0 0,0.1 0,0 v -11.8 c 0,-0.1 -0.1,0 0,0 h 5.9 c 0.055,0 0.1,-0.045 0.1,-0.1 v -12 c 0,-0.055 -0.045,-0.1 -0.1,-0.1 h -5.9 c -0.1,0 0,0.1 0,0 v -11.8 c 0,-0.1 -0.1,0 0,0 h 5.9 c 0.055,0 0.1,-0.045 0.1,-0.1 v -12 c 0,-0.055 -0.045,-0.1 -0.1,-0.1 h -5.9 c -0.1,0 0,0.1 0,0 v -19.9 c 0,-0.055 -0.045,-0.1 -0.1,-0.1 h -238 c -0.055,0 -0.1,0.045 -0.1,0.1 v 19.9 c 0,0.1 0.1,0 0,0 h -5.9 c -0.055,0 -0.1,0.045 -0.1,0.1 v 12 c 0,0.055 0.045,0.1 0.1,0.1 h 5.9 c 0.1,0 0,-0.1 0,0 v 11.8 c 0,0.1 0.1,0 0,0 h -5.9 c -0.055,0 -0.1,0.045 -0.1,0.1 v 12 c 0,0.055 0.045,0.1 0.1,0.1 h 5.9 c 0.1,0 0,-0.1 0,0 v 11.8 c 0,0.1 0.1,0 0,0 h -5.9 c -0.055,0 -0.1,0.045 -0.1,0.1 v 12 c 0,0.055 0.045,0.1 0.1,0.1 h 5.9 c 0.1,0 0,-0.1 0,0 v 19.9 c 0,0.055 0.045,0.1 0.1,0.1 z"
       stroke="#000000"
       stroke-width="0.20"
       id="path426"
       style="vector-effect:non-scaling-stroke;stroke-width:0.264583;stroke-dasharray:none;-inkscape-stroke:hairline" />
  </g>
  <rect
     style="vector-effect:non-scaling-stroke;fill:none;stroke:#000000;stroke-width:0.212894;stroke-dasharray:none;-inkscape-stroke:hairline;stop-color:#000000"
     id="rect1886"
     width="80"
     height="40"
     x="626.58868"
     y="553.64044"
     ry="20" />
  <path
     style="fill:#0000ff;fill-opacity:1;stroke:#0000ff;stroke-width:1;stroke-dasharray:none;stroke-opacity:1;stop-color:#000000"
     d="m 153.4525,490.64163 19.92146,19.93458 -20,0.0654 z"
     id="path1998-3-5" />
  <text
     xml:space="preserve"
     style="font-style:normal;font-variant:normal;font-weight:normal;font-stretch:normal;font-size:14.1111px;font-family:Arial;-inkscape-font-specification:'Arial, Normal';font-variant-ligatures:normal;font-variant-caps:normal;font-variant-numeric:normal;font-variant-east-asian:normal;fill:#0000ff;fill-opacity:1;stroke:none;stroke-width:1;stroke-dasharray:none;stroke-opacity:1;stop-color:#000000"
     x="3.321589"
     y="574.04858"
     id="text8709"><tspan
       sodipodi:role="line"
       style="font-style:normal;font-variant:normal;font-weight:normal;font-stretch:normal;font-size:14.1111px;font-family:Arial;-inkscape-font-specification:'Arial, Normal';font-variant-ligatures:normal;font-variant-caps:normal;font-variant-numeric:normal;font-variant-east-asian:normal;fill:#0000ff;fill-opacity:1;stroke:none;stroke-width:1;stroke-opacity:1"
       x="3.321589"
       y="574.04858"
       id="tspan1872">35mm wide</tspan><tspan
       sodipodi:role="line"
       style="font-style:normal;font-variant:normal;font-weight:normal;font-stretch:normal;font-size:14.1111px;font-family:Arial;-inkscape-font-specification:'Arial, Normal';font-variant-ligatures:normal;font-variant-caps:normal;font-variant-numeric:normal;font-variant-east-asian:normal;fill:#0000ff;fill-opacity:1;stroke:none;stroke-width:1;stroke-opacity:1"
       x="3.321589"
       y="591.6875"
       id="tspan4401">snare is mounted</tspan><tspan
       sodipodi:role="line"
       style="font-style:normal;font-variant:normal;font-weight:normal;font-stretch:normal;font-size:14.1111px;font-family:Arial;-inkscape-font-specification:'Arial, Normal';font-variant-ligatures:normal;font-variant-caps:normal;font-variant-numeric:normal;font-variant-east-asian:normal;fill:#0000ff;fill-opacity:1;stroke:none;stroke-width:1;stroke-opacity:1"
       x="3.321589"
       y="609.32635"
       id="tspan4393">at high end of snare</tspan><tspan
       sodipodi:role="line"
       style="font-style:normal;font-variant:normal;font-weight:normal;font-stretch:normal;font-size:14.1111px;font-family:Arial;-inkscape-font-specification:'Arial, Normal';font-variant-ligatures:normal;font-variant-caps:normal;font-variant-numeric:normal;font-variant-east-asian:normal;fill:#0000ff;fill-opacity:1;stroke:none;stroke-width:1;stroke-opacity:1"
       x="3.321589"
       y="626.96521"
       id="tspan4397">bar, nearest tapa</tspan><tspan
       sodipodi:role="line"
       style="font-style:normal;font-variant:normal;font-weight:normal;font-stretch:normal;font-size:14.1111px;font-family:Arial;-inkscape-font-specification:'Arial, Normal';font-variant-ligatures:normal;font-variant-caps:normal;font-variant-numeric:normal;font-variant-east-asian:normal;fill:#0000ff;fill-opacity:1;stroke:none;stroke-width:1;stroke-opacity:1"
       x="3.321589"
       y="644.60413"
       id="tspan4399">face</tspan></text>
  <text
     xml:space="preserve"
     style="font-style:normal;font-variant:normal;font-weight:normal;font-stretch:normal;font-size:14.1111px;font-family:Arial;-inkscape-font-specification:'Arial, Normal';font-variant-ligatures:normal;font-variant-caps:normal;font-variant-numeric:normal;font-variant-east-asian:normal;fill:#0000ff;fill-opacity:1;stroke:none;stroke-width:1;stroke-dasharray:none;stroke-opacity:1;stop-color:#000000"
     x="303.90021"
     y="756.58148"
     id="text8709-3"><tspan
       sodipodi:role="line"
       id="tspan8707-6"
       style="font-style:normal;font-variant:normal;font-weight:normal;font-stretch:normal;font-size:14.1111px;font-family:Arial;-inkscape-font-specification:'Arial, Normal';font-variant-ligatures:normal;font-variant-caps:normal;font-variant-numeric:normal;font-variant-east-asian:normal;fill:#0000ff;fill-opacity:1;stroke:none;stroke-width:1;stroke-opacity:1"
       x="303.90021"
       y="756.58148">Snare Bar slots</tspan><tspan
       sodipodi:role="line"
       style="font-style:normal;font-variant:normal;font-weight:normal;font-stretch:normal;font-size:14.1111px;font-family:Arial;-inkscape-font-specification:'Arial, Normal';font-variant-ligatures:normal;font-variant-caps:normal;font-variant-numeric:normal;font-variant-east-asian:normal;fill:#0000ff;fill-opacity:1;stroke:none;stroke-width:1;stroke-opacity:1"
       x="303.90021"
       y="774.22034"
       id="tspan1872-0">slots (15.2x6.2mm)</tspan></text>
  <text
     xml:space="preserve"
     style="font-style:normal;font-variant:normal;font-weight:normal;font-stretch:normal;font-size:14.1111px;font-family:Arial;-inkscape-font-specification:'Arial, Normal';font-variant-ligatures:normal;font-variant-caps:normal;font-variant-numeric:normal;font-variant-east-asian:normal;fill:#0000ff;fill-opacity:1;stroke:none;stroke-width:1;stroke-dasharray:none;stroke-opacity:1;stop-color:#000000"
     x="812.12311"
     y="487.43329"
     id="text8709-9"><tspan
       sodipodi:role="line"
       id="tspan8707-1"
       style="font-style:normal;font-variant:normal;font-weight:normal;font-stretch:normal;font-size:14.1111px;font-family:Arial;-inkscape-font-specification:'Arial, Normal';font-variant-ligatures:normal;font-variant-caps:normal;font-variant-numeric:normal;font-variant-east-asian:normal;fill:#0000ff;fill-opacity:1;stroke:none;stroke-width:1;stroke-opacity:1"
       x="812.12311"
       y="487.43329">Snare Bar: 35x238x6mm</tspan><tspan
       sodipodi:role="line"
       style="font-style:normal;font-variant:normal;font-weight:normal;font-stretch:normal;font-size:14.1111px;font-family:Arial;-inkscape-font-specification:'Arial, Normal';font-variant-ligatures:normal;font-variant-caps:normal;font-variant-numeric:normal;font-variant-east-asian:normal;fill:#0000ff;fill-opacity:1;stroke:none;stroke-width:1;stroke-opacity:1"
       x="812.12311"
       y="505.07214"
       id="tspan8457">+ 15x6mm tabs each end</tspan></text>
  <path
     id="rect8865"
     style="vector-effect:non-scaling-stroke;fill:none;fill-opacity:1;stroke:#000000;stroke-width:0.264583;stroke-dasharray:none;stroke-opacity:1;-inkscape-stroke:hairline;stop-color:#000000"
     d="m 554.39937,468.74918 v 9.99991 h -5.72679 v 15.00012 h 5.72679 v 9.9999 h 237.99994 v -9.9999 h 5.47667 v -15.00012 h -5.47667 v -9.99991 z" />
  <g
     id="g10948"
     transform="translate(178.37117,422.32381)"
     style="vector-effect:non-scaling-stroke;stroke-width:0.264583;stroke-dasharray:none;-inkscape-stroke:hairline">
    <g
       id="g10600"
       transform="translate(-149.21022,-71.244066)"
       style="vector-effect:non-scaling-stroke;stroke-width:0.264583;stroke-dasharray:none;-inkscape-stroke:hairline">
      <rect
         style="vector-effect:non-scaling-stroke;fill:none;stroke:#ff0000;stroke-width:0.264583;stroke-dasharray:none;stroke-opacity:1;-inkscape-stroke:hairline;stop-color:#000000"
         id="rect1158"
         width="350"
         height="250"
         x="161.26102"
         y="-351.07974"
         ry="2.4702964" />
      <circle
         style="vector-effect:non-scaling-stroke;fill:none;fill-opacity:1;stroke:#ff0000;stroke-width:0.264583;stroke-dasharray:none;stroke-opacity:1;-inkscape-stroke:hairline;stop-color:#000000"
         id="path10371"
         cx="173.29018"
         cy="-339.05057"
         r="1.5" />
      <circle
         style="vector-effect:non-scaling-stroke;fill:none;fill-opacity:1;stroke:#ff0000;stroke-width:0.264583;stroke-dasharray:none;stroke-opacity:1;-inkscape-stroke:hairline;stop-color:#000000"
         id="path10489"
         cx="173.85359"
         cy="-113.86337"
         r="1.5" />
      <circle
         style="vector-effect:non-scaling-stroke;fill:none;fill-opacity:1;stroke:#ff0000;stroke-width:0.264583;stroke-dasharray:none;stroke-opacity:1;-inkscape-stroke:hairline;stop-color:#000000"
         id="path10489-5"
         cx="498.75473"
         cy="-113.28798"
         r="1.5" />
      <circle
         style="vector-effect:non-scaling-stroke;fill:none;fill-opacity:1;stroke:#ff0000;stroke-width:0.264583;stroke-dasharray:none;stroke-opacity:1;-inkscape-stroke:hairline;stop-color:#000000"
         id="path10489-9"
         cx="498.45114"
         cy="-338.05478"
         r="1.5" />
    </g>
    <circle
       style="vector-effect:non-scaling-stroke;fill:none;fill-opacity:1;stroke:#ff0000;stroke-width:0.264583;stroke-dasharray:none;stroke-opacity:1;-inkscape-stroke:hairline;stop-color:#000000"
       id="path10656"
       cx="78.941467"
       cy="-419.01987"
       r="1.5" />
    <circle
       style="vector-effect:non-scaling-stroke;fill:none;fill-opacity:1;stroke:#ff0000;stroke-width:0.264583;stroke-dasharray:none;stroke-opacity:1;-inkscape-stroke:hairline;stop-color:#000000"
       id="path10656-2"
       cx="187.0508"
       cy="-419.01987"
       r="1.5" />
    <circle
       style="vector-effect:non-scaling-stroke;fill:none;fill-opacity:1;stroke:#ff0000;stroke-width:0.264583;stroke-dasharray:none;stroke-opacity:1;-inkscape-stroke:hairline;stop-color:#000000"
       id="path10656-2-2"
       cx="295.16013"
       cy="-419.01987"
       r="1.5" />
    <circle
       style="vector-effect:non-scaling-stroke;fill:none;fill-opacity:1;stroke:#ff0000;stroke-width:0.264583;stroke-dasharray:none;stroke-opacity:1;-inkscape-stroke:hairline;stop-color:#000000"
       id="path10656-3"
       cx="78.941467"
       cy="-175.45517"
       r="1.5" />
    <circle
       style="vector-effect:non-scaling-stroke;fill:none;fill-opacity:1;stroke:#ff0000;stroke-width:0.264583;stroke-dasharray:none;stroke-opacity:1;-inkscape-stroke:hairline;stop-color:#000000"
       id="path10656-2-6"
       cx="187.0508"
       cy="-175.45517"
       r="1.5" />
    <circle
       style="vector-effect:non-scaling-stroke;fill:none;fill-opacity:1;stroke:#ff0000;stroke-width:0.264583;stroke-dasharray:none;stroke-opacity:1;-inkscape-stroke:hairline;stop-color:#000000"
       id="path10656-2-2-1"
       cx="295.16013"
       cy="-175.45517"
       r="1.5" />
    <circle
       style="vector-effect:non-scaling-stroke;fill:none;fill-opacity:1;stroke:#ff0000;stroke-width:0.264583;stroke-dasharray:none;stroke-opacity:1;-inkscape-stroke:hairline;stop-color:#000000"
       id="path10794"
       cx="15.49492"
       cy="-296.94406"
       r="1.5" />
    <circle
       style="vector-effect:non-scaling-stroke;fill:none;fill-opacity:1;stroke:#ff0000;stroke-width:0.264583;stroke-dasharray:none;stroke-opacity:1;-inkscape-stroke:hairline;stop-color:#000000"
       id="path10794-2"
       cx="358.58978"
       cy="-296.94406"
       r="1.5" />
  </g>
  <text
     xml:space="preserve"
     style="font-style:normal;font-variant:normal;font-weight:normal;font-stretch:normal;font-size:11.2889px;font-family:Arial;-inkscape-font-specification:'Arial, Normal';font-variant-ligatures:normal;font-variant-caps:normal;font-variant-numeric:normal;font-variant-east-asian:normal;vector-effect:non-scaling-stroke;fill:#0000ff;fill-opacity:1;stroke:none;stroke-width:0.264583;stroke-dasharray:none;stroke-opacity:1;-inkscape-stroke:hairline;stop-color:#000000"
     x="552.73816"
     y="103.49579"
     id="text12351"><tspan
       sodipodi:role="line"
       id="tspan12349"
       style="font-style:normal;font-variant:normal;font-weight:normal;font-stretch:normal;font-size:11.2889px;font-family:Arial;-inkscape-font-specification:'Arial, Normal';font-variant-ligatures:normal;font-variant-caps:normal;font-variant-numeric:normal;font-variant-east-asian:normal;fill:#0000ff;fill-opacity:1;stroke-width:0.264583"
       x="552.73816"
       y="103.49579">Tapa 3mm plywood (top)</tspan></text>
  <text
     xml:space="preserve"
     style="font-style:normal;font-variant:normal;font-weight:normal;font-stretch:normal;font-size:11.2889px;font-family:Arial;-inkscape-font-specification:'Arial, Normal';font-variant-ligatures:normal;font-variant-caps:normal;font-variant-numeric:normal;font-variant-east-asian:normal;vector-effect:non-scaling-stroke;fill:#0000ff;fill-opacity:1;stroke:none;stroke-width:0.264583;stroke-dasharray:none;stroke-opacity:1;-inkscape-stroke:hairline;stop-color:#000000"
     x="123.21357"
     y="389.00262"
     id="text12351-6"><tspan
       sodipodi:role="line"
       id="tspan12349-2"
       style="font-style:normal;font-variant:normal;font-weight:normal;font-stretch:normal;font-size:11.2889px;font-family:Arial;-inkscape-font-specification:'Arial, Normal';font-variant-ligatures:normal;font-variant-caps:normal;font-variant-numeric:normal;font-variant-east-asian:normal;fill:#0000ff;fill-opacity:1;stroke-width:0.264583"
       x="123.21357"
       y="389.00262">bottom</tspan></text>
  <text
     xml:space="preserve"
     style="font-style:normal;font-variant:normal;font-weight:normal;font-stretch:normal;font-size:11.2889px;font-family:Arial;-inkscape-font-specification:'Arial, Normal';font-variant-ligatures:normal;font-variant-caps:normal;font-variant-numeric:normal;font-variant-east-asian:normal;white-space:pre;inline-size:148.746;display:inline;vector-effect:non-scaling-stroke;fill:#0000ff;fill-opacity:1;stroke:none;stroke-width:0.264583;stroke-dasharray:none;stroke-opacity:1;-inkscape-stroke:hairline;stop-color:#000000"
     x="403.42624"
     y="28.741016"
     id="text12351-7"
     transform="translate(-403.62422,479.67483)"><tspan
       x="403.42624"
       y="28.741016"
       id="tspan12692">Four triangular (20 x 20 mm
</tspan><tspan
       x="403.42624"
       y="42.852144"
       id="tspan12694">sides) pillars from tapa
</tspan><tspan
       x="403.42624"
       y="56.96327"
       id="tspan12696">to bottom. (100-6) 94 mm high dowels</tspan></text>
  <text
     xml:space="preserve"
     style="font-style:normal;font-variant:normal;font-weight:normal;font-stretch:normal;font-size:11.2889px;font-family:Arial;-inkscape-font-specification:'Arial, Normal';font-variant-ligatures:normal;font-variant-caps:normal;font-variant-numeric:normal;font-variant-east-asian:normal;white-space:pre;inline-size:148.746;display:inline;vector-effect:non-scaling-stroke;fill:#0000ff;fill-opacity:1;stroke:none;stroke-width:0.264583;stroke-dasharray:none;stroke-opacity:1;-inkscape-stroke:hairline;stop-color:#000000"
     x="403.42624"
     y="28.741016"
     id="text12351-7-3"
     transform="translate(173.95047,267.13211)"><tspan
       x="403.42624"
       y="28.741016"
       id="tspan12698">Bottom and sides, snarebar </tspan><tspan
       x="403.42624"
       y="42.852144"
       id="tspan12700">6mm plywood</tspan></text>
  <text
     xml:space="preserve"
     style="font-style:normal;font-variant:normal;font-weight:normal;font-stretch:normal;font-size:11.2889px;font-family:Arial;-inkscape-font-specification:'Arial, Normal';font-variant-ligatures:normal;font-variant-caps:normal;font-variant-numeric:normal;font-variant-east-asian:normal;vector-effect:non-scaling-stroke;fill:#0000f1;fill-opacity:1;stroke:none;stroke-width:0.264583;stroke-dasharray:none;stroke-opacity:1;-inkscape-stroke:hairline;stop-color:#000000"
     x="581.76801"
     y="354.11664"
     id="text12351-1"><tspan
       sodipodi:role="line"
       style="font-style:normal;font-variant:normal;font-weight:normal;font-stretch:normal;font-size:11.2889px;font-family:Arial;-inkscape-font-specification:'Arial, Normal';font-variant-ligatures:normal;font-variant-caps:normal;font-variant-numeric:normal;font-variant-east-asian:normal;fill:#0000f1;fill-opacity:1;stroke-width:0.264583"
       x="581.76801"
       y="354.11664"
       id="tspan12733">Remove blue guidelines</tspan><tspan
       sodipodi:role="line"
       style="font-style:normal;font-variant:normal;font-weight:normal;font-stretch:normal;font-size:11.2889px;font-family:Arial;-inkscape-font-specification:'Arial, Normal';font-variant-ligatures:normal;font-variant-caps:normal;font-variant-numeric:normal;font-variant-east-asian:normal;fill:#0000f1;fill-opacity:1;stroke-width:0.264583"
       x="581.76801"
       y="368.22775"
       id="tspan12749">before etching/cutting as</tspan><tspan
       sodipodi:role="line"
       style="font-style:normal;font-variant:normal;font-weight:normal;font-stretch:normal;font-size:11.2889px;font-family:Arial;-inkscape-font-specification:'Arial, Normal';font-variant-ligatures:normal;font-variant-caps:normal;font-variant-numeric:normal;font-variant-east-asian:normal;fill:#0000f1;fill-opacity:1;stroke-width:0.264583"
       x="581.76801"
       y="382.33887"
       id="tspan946">needed</tspan></text>
  <text
     xml:space="preserve"
     transform="matrix(0.26458333,0,0,0.26458333,178.28869,255.57787)"
     id="text998"
     style="font-size:26.6667px;font-family:Arial;-inkscape-font-specification:'Arial, Normal';white-space:pre;shape-inside:url(#rect1000);display:inline;vector-effect:non-scaling-stroke;fill:#0000ff;fill-opacity:1;stroke:#000000;-inkscape-stroke:hairline;stop-color:#000000" />
  <text
     xml:space="preserve"
     style="font-size:7.05556px;font-family:Arial;-inkscape-font-specification:'Arial, Normal';vector-effect:non-scaling-stroke;fill:#0000ff;fill-opacity:1;stroke:#000000;stroke-width:0.264583;-inkscape-stroke:hairline;stop-color:#000000"
     x="618.08429"
     y="282.11307"
     id="text1006"><tspan
       sodipodi:role="line"
       id="tspan1004"
       style="stroke-width:0.264583"
       x="618.08429"
       y="282.11307" /></text>
  <rect
     style="vector-effect:non-scaling-stroke;fill:#0000ff;fill-opacity:1;stroke:#000000;stroke-width:0.374602;-inkscape-stroke:hairline;stop-color:#000000"
     id="rect1137"
     width="20"
     height="94"
     x="152.25281"
     y="521.87488" />
  <g
     id="g1274"
     transform="translate(688.32187,622.89185)">
    <path
       style="fill:none;stroke:#0000ff;stroke-width:1;stroke-dasharray:none;stroke-opacity:1;stop-color:#000000"
       d="m -473.1738,-350.92718 -19.93458,19.92146 -0.0654,-20 z"
       id="path1998" />
    <path
       style="fill:none;stroke:#0000ff;stroke-width:1;stroke-dasharray:none;stroke-opacity:1;stop-color:#000000"
       d="m -492.78471,-133.32555 19.92146,19.93458 -20,0.0654 z"
       id="path1998-3" />
    <path
       style="fill:none;stroke:#0000ff;stroke-width:1;stroke-dasharray:none;stroke-opacity:1;stop-color:#000000"
       d="m -155.94271,-330.10915 -19.92146,-19.93458 20,-0.0654 z"
       id="path1998-6" />
    <path
       style="fill:none;stroke:#0000ff;stroke-width:1;stroke-dasharray:none;stroke-opacity:1;stop-color:#000000"
       d="m -155.64316,-132.71285 -19.92146,19.93459 20,0.0654 z"
       id="path1998-7" />
  </g>
  <path
     d="m 191.60755,726.3852 h 19 c 0.055,0 0.1,-0.045 0.1,-0.1 v -5.9 c 0,-0.1 -0.1,0 0,0 h 11.8 c 0.1,0 0,-0.1 0,0 v 5.9 c 0,0.055 0.045,0.1 0.1,0.1 h 12 c 0.055,0 0.1,-0.045 0.1,-0.1 v -5.9 c 0,-0.1 -0.1,0 0,0 h 11.8 c 0.1,0 0,-0.1 0,0 v 5.9 c 0,0.055 0.045,0.1 0.1,0.1 h 12 c 0.055,0 0.1,-0.045 0.1,-0.1 v -5.9 c 0,-0.1 -0.1,0 0,0 h 11.8 c 0.1,0 0,-0.1 0,0 v 5.9 c 0,0.055 0.045,0.1 0.1,0.1 h 12 c 0.055,0 0.1,-0.045 0.1,-0.1 v -5.9 c 0,-0.1 -0.1,0 0,0 h 11.8 c 0.1,0 0,-0.1 0,0 v 5.9 c 0,0.055 0.045,0.1 0.1,0.1 h 12 c 0.055,0 0.1,-0.045 0.1,-0.1 v -5.9 c 0,-0.1 -0.1,0 0,0 h 11.8 c 0.1,0 0,-0.1 0,0 v 5.9 c 0,0.055 0.045,0.1 0.1,0.1 h 12 c 0.055,0 0.1,-0.045 0.1,-0.1 v -5.9 c 0,-0.1 -0.1,0 0,0 h 11.8 c 0.1,0 0,-0.1 0,0 v 5.9 c 0,0.055 0.045,0.1 0.1,0.1 h 12 c 0.055,0 0.1,-0.045 0.1,-0.1 v -5.9 c 0,-0.1 -0.1,0 0,0 h 11.8 c 0.1,0 0,-0.1 0,0 v 5.9 c 0,0.055 0.045,0.1 0.1,0.1 h 12 c 0.055,0 0.1,-0.045 0.1,-0.1 v -5.9 c 0,-0.1 -0.1,0 0,0 h 11.8 c 0.1,0 0,-0.1 0,0 v 5.9 c 0,0.055 0.045,0.1 0.1,0.1 h 12 c 0.055,0 0.1,-0.045 0.1,-0.1 v -5.9 c 0,-0.1 -0.1,0 0,0 h 11.8 c 0.1,0 0,-0.1 0,0 v 5.9 c 0,0.055 0.045,0.1 0.1,0.1 h 12 c 0.055,0 0.1,-0.045 0.1,-0.1 v -5.9 c 0,-0.1 -0.1,0 0,0 h 11.8 c 0.1,0 0,-0.1 0,0 v 5.9 c 0,0.055 0.045,0.1 0.1,0.1 h 12 c 0.055,0 0.1,-0.045 0.1,-0.1 v -5.9 c 0,-0.1 -0.1,0 0,0 h 11.8 c 0.1,0 0,-0.1 0,0 v 5.9 c 0,0.055 0.045,0.1 0.1,0.1 h 12 c 0.055,0 0.1,-0.045 0.1,-0.1 v -5.9 c 0,-0.1 -0.1,0 0,0 h 11.8 c 0.1,0 0,-0.1 0,0 v 5.9 c 0,0.055 0.045,0.1 0.1,0.1 h 12 c 0.055,0 0.1,-0.045 0.1,-0.1 v -5.9 c 0,-0.1 -0.1,0 0,0 h 11.8 c 0.1,0 0,-0.1 0,0 v 5.9 c 0,0.055 0.045,0.1 0.1,0.1 h 19 6 c 0.055,0 0.1,-0.045 0.1,-0.1 v -20 c 0,-0.055 -0.045,-0.1 -0.1,-0.1 h -5.9 c -0.1,0 0,0.1 0,0 v -11.8 c 0,-0.1 -0.1,0 0,0 h 5.9 c 0.055,0 0.1,-0.045 0.1,-0.1 v -12 c 0,-0.055 -0.045,-0.1 -0.1,-0.1 h -5.9 c -0.1,0 0,0.1 0,0 v -11.8 c 0,-0.1 -0.1,0 0,0 h 5.9 c 0.055,0 0.1,-0.045 0.1,-0.1 v -12 c 0,-0.055 -0.045,-0.1 -0.1,-0.1 h -5.9 c -0.1,0 0,0.1 0,0 v -11.8 c 0,-0.1 -0.1,0 0,0 h 5.9 c 0.055,0 0.1,-0.045 0.1,-0.1 v -20 c 0,-0.055 -0.045,-0.1 -0.1,-0.1 h -6 -338 -6 c -0.055,0 -0.1,0.045 -0.1,0.1 v 20 c 0,0.055 0.045,0.1 0.1,0.1 h 5.9 c 0.1,0 0,-0.1 0,0 v 11.8 c 0,0.1 0.1,0 0,0 h -5.9 c -0.055,0 -0.1,0.045 -0.1,0.1 v 12 c 0,0.055 0.045,0.1 0.1,0.1 h 5.9 c 0.1,0 0,-0.1 0,0 v 11.8 c 0,0.1 0.1,0 0,0 h -5.9 c -0.055,0 -0.1,0.045 -0.1,0.1 v 12 c 0,0.055 0.045,0.1 0.1,0.1 h 5.9 c 0.1,0 0,-0.1 0,0 v 11.8 c 0,0.1 0.1,0 0,0 h -5.9 c -0.055,0 -0.1,0.045 -0.1,0.1 v 20 c 0,0.055 0.045,0.1 0.1,0.1 z"
     stroke="#000000"
     stroke-width="0.20"
     id="path414"
     style="vector-effect:non-scaling-stroke;fill:none;stroke-width:0.264583;stroke-linecap:round;stroke-linejoin:round;stroke-dasharray:none;-inkscape-stroke:hairline" />
  <g
     id="p-1"
     style="vector-effect:non-scaling-stroke;fill:none;stroke-width:0.264583;stroke-linecap:round;stroke-linejoin:round;stroke-dasharray:none;-inkscape-stroke:hairline"
     transform="translate(175.251,258.41576)">
    <path
       d="m 16.1,363.4 h 19 c 0.055,0 0.1,-0.045 0.1,-0.1 v -5.9 c 0,-0.1 -0.1,0 0,0 H 47 c 0.1,0 0,-0.1 0,0 v 5.9 c 0,0.055 0.045,0.1 0.1,0.1 h 12 c 0.055,0 0.1,-0.045 0.1,-0.1 v -5.9 c 0,-0.1 -0.1,0 0,0 H 71 c 0.1,0 0,-0.1 0,0 v 5.9 c 0,0.055 0.045,0.1 0.1,0.1 h 12 c 0.055,0 0.1,-0.045 0.1,-0.1 v -5.9 c 0,-0.1 -0.1,0 0,0 H 95 c 0.1,0 0,-0.1 0,0 v 5.9 c 0,0.055 0.045,0.1 0.1,0.1 h 12 c 0.055,0 0.1,-0.045 0.1,-0.1 v -5.9 c 0,-0.1 -0.1,0 0,0 H 119 c 0.1,0 0,-0.1 0,0 v 5.9 c 0,0.055 0.045,0.1 0.1,0.1 h 12 c 0.055,0 0.1,-0.045 0.1,-0.1 v -5.9 c 0,-0.1 -0.1,0 0,0 H 143 c 0.1,0 0,-0.1 0,0 v 5.9 c 0,0.055 0.045,0.1 0.1,0.1 h 12 c 0.055,0 0.1,-0.045 0.1,-0.1 v -5.9 c 0,-0.1 -0.1,0 0,0 H 167 c 0.1,0 0,-0.1 0,0 v 5.9 c 0,0.055 0.045,0.1 0.1,0.1 h 12 c 0.055,0 0.1,-0.045 0.1,-0.1 v -5.9 c 0,-0.1 -0.1,0 0,0 H 191 c 0.1,0 0,-0.1 0,0 v 5.9 c 0,0.055 0.045,0.1 0.1,0.1 h 12 c 0.055,0 0.1,-0.045 0.1,-0.1 v -5.9 c 0,-0.1 -0.1,0 0,0 H 215 c 0.1,0 0,-0.1 0,0 v 5.9 c 0,0.055 0.045,0.1 0.1,0.1 h 12 c 0.055,0 0.1,-0.045 0.1,-0.1 v -5.9 c 0,-0.1 -0.1,0 0,0 H 239 c 0.1,0 0,-0.1 0,0 v 5.9 c 0,0.055 0.045,0.1 0.1,0.1 h 12 c 0.055,0 0.1,-0.045 0.1,-0.1 v -5.9 c 0,-0.1 -0.1,0 0,0 H 263 c 0.1,0 0,-0.1 0,0 v 5.9 c 0,0.055 0.045,0.1 0.1,0.1 h 12 c 0.055,0 0.1,-0.045 0.1,-0.1 v -5.9 c 0,-0.1 -0.1,0 0,0 H 287 c 0.1,0 0,-0.1 0,0 v 5.9 c 0,0.055 0.045,0.1 0.1,0.1 h 12 c 0.055,0 0.1,-0.045 0.1,-0.1 v -5.9 c 0,-0.1 -0.1,0 0,0 H 311 c 0.1,0 0,-0.1 0,0 v 5.9 c 0,0.055 0.045,0.1 0.1,0.1 h 12 c 0.055,0 0.1,-0.045 0.1,-0.1 v -5.9 c 0,-0.1 -0.1,0 0,0 H 335 c 0.1,0 0,-0.1 0,0 v 5.9 c 0,0.055 0.045,0.1 0.1,0.1 h 19 6 c 0.055,0 0.1,-0.045 0.1,-0.1 v -20 c 0,-0.055 -0.045,-0.1 -0.1,-0.1 h -5.9 c -0.1,0 0,0.1 0,0 v -11.8 c 0,-0.1 -0.1,0 0,0 h 5.9 c 0.055,0 0.1,-0.045 0.1,-0.1 v -12 c 0,-0.055 -0.045,-0.1 -0.1,-0.1 h -5.9 c -0.1,0 0,0.1 0,0 v -11.8 c 0,-0.1 -0.1,0 0,0 h 5.9 c 0.055,0 0.1,-0.045 0.1,-0.1 v -12 c 0,-0.055 -0.045,-0.1 -0.1,-0.1 h -5.9 c -0.1,0 0,0.1 0,0 v -11.8 c 0,-0.1 -0.1,0 0,0 h 5.9 c 0.055,0 0.1,-0.045 0.1,-0.1 v -20 c 0,-0.055 -0.045,-0.1 -0.1,-0.1 h -6 -338 -6 c -0.055,0 -0.1,0.045 -0.1,0.1 v 20 c 0,0.055 0.045,0.1 0.1,0.1 H 16 c 0.1,0 0,-0.1 0,0 v 11.8 c 0,0.1 0.1,0 0,0 h -5.9 c -0.055,0 -0.1,0.045 -0.1,0.1 v 12 c 0,0.055 0.045,0.1 0.1,0.1 H 16 c 0.1,0 0,-0.1 0,0 v 11.8 c 0,0.1 0.1,0 0,0 h -5.9 c -0.055,0 -0.1,0.045 -0.1,0.1 v 12 c 0,0.055 0.045,0.1 0.1,0.1 H 16 c 0.1,0 0,-0.1 0,0 v 11.8 c 0,0.1 0.1,0 0,0 h -5.9 c -0.055,0 -0.1,0.045 -0.1,0.1 v 20 c 0,0.055 0.045,0.1 0.1,0.1 z"
       stroke="#000000"
       stroke-width="0.20"
       id="path417"
       style="vector-effect:non-scaling-stroke;stroke-width:0.264583;stroke-dasharray:none;-inkscape-stroke:hairline" />
  </g>
  <rect
     style="vector-effect:non-scaling-stroke;fill:none;fill-opacity:1;stroke:#ff0007;stroke-width:0.0940261;stroke-dasharray:none;stroke-opacity:1;-inkscape-stroke:hairline;stop-color:#000000"
     id="rect6594"
     width="15.2"
     height="6.1999998"
     x="241.34448"
     y="536.38245" />
  <rect
     style="vector-effect:non-scaling-stroke;fill:none;fill-opacity:1;stroke:#ff0007;stroke-width:0.0940261;stroke-dasharray:none;stroke-opacity:1;-inkscape-stroke:hairline;stop-color:#000000"
     id="rect6594-8"
     width="15.2"
     height="6.1999998"
     x="464.65176"
     y="656.28949" />
</svg>
